<?xml version="1.0" encoding="UTF-8" standalone="no"?>
<!DOCTYPE svg PUBLIC "-//W3C//DTD SVG 1.1//EN"
 "http://www.w3.org/Graphics/SVG/1.1/DTD/svg11.dtd">
<!-- Generated by graphviz version 2.38.0 (20140413.2041)
 -->
<!-- Title: G Pages: 1 -->
<svg width="145pt" height="476pt"
 viewBox="0.00 0.00 145.00 476.00" xmlns="http://www.w3.org/2000/svg" xmlns:xlink="http://www.w3.org/1999/xlink">
<g id="graph0" class="graph" transform="scale(1 1) rotate(0) translate(4 472)">
<title>G</title>
<polygon fill="white" stroke="none" points="-4,4 -4,-472 141,-472 141,4 -4,4"/>
<!-- 1 -->
<g id="node1" class="node"><title>1</title>
<ellipse fill="none" stroke="black" cx="27" cy="-450" rx="27" ry="18"/>
<text text-anchor="middle" x="27" y="-446.3" font-family="Times New Roman,serif" font-size="14.00">1</text>
</g>
<!-- 2 -->
<g id="node2" class="node"><title>2</title>
<ellipse fill="none" stroke="black" cx="27" cy="-378" rx="27" ry="18"/>
<text text-anchor="middle" x="27" y="-374.3" font-family="Times New Roman,serif" font-size="14.00">2</text>
</g>
<!-- 1&#45;&gt;2 -->
<g id="edge1" class="edge"><title>1&#45;&gt;2</title>
<path fill="none" stroke="black" d="M27,-431.697C27,-423.983 27,-414.712 27,-406.112"/>
<polygon fill="black" stroke="black" points="30.5001,-406.104 27,-396.104 23.5001,-406.104 30.5001,-406.104"/>
</g>
<!-- 4 -->
<g id="node4" class="node"><title>4</title>
<ellipse fill="none" stroke="black" cx="27" cy="-306" rx="27" ry="18"/>
<text text-anchor="middle" x="27" y="-302.3" font-family="Times New Roman,serif" font-size="14.00">4</text>
</g>
<!-- 2&#45;&gt;4 -->
<g id="edge2" class="edge"><title>2&#45;&gt;4</title>
<path fill="none" stroke="black" d="M27,-359.697C27,-351.983 27,-342.712 27,-334.112"/>
<polygon fill="black" stroke="black" points="30.5001,-334.104 27,-324.104 23.5001,-334.104 30.5001,-334.104"/>
</g>
<!-- 3 -->
<g id="node3" class="node"><title>3</title>
<ellipse fill="none" stroke="black" cx="38" cy="-90" rx="27" ry="18"/>
<text text-anchor="middle" x="38" y="-86.3" font-family="Times New Roman,serif" font-size="14.00">3</text>
</g>
<!-- 3&#45;&gt;4 -->
<g id="edge3" class="edge"><title>3&#45;&gt;4</title>
<path fill="none" stroke="black" d="M30.5005,-107.311C26.1922,-117.594 21.2097,-131.288 19,-144 10.9045,-190.572 16.9743,-245.775 22.0412,-277.947"/>
<polygon fill="black" stroke="black" points="18.6078,-278.637 23.6992,-287.928 25.5132,-277.49 18.6078,-278.637"/>
</g>
<!-- 8 -->
<g id="node8" class="node"><title>8</title>
<ellipse fill="none" stroke="black" cx="74" cy="-18" rx="27" ry="18"/>
<text text-anchor="middle" x="74" y="-14.3" font-family="Times New Roman,serif" font-size="14.00">8</text>
</g>
<!-- 3&#45;&gt;8 -->
<g id="edge8" class="edge"><title>3&#45;&gt;8</title>
<path fill="none" stroke="black" d="M46.3496,-72.7646C50.7115,-64.2831 56.1469,-53.7144 61.0413,-44.1974"/>
<polygon fill="black" stroke="black" points="64.2346,-45.6409 65.6957,-35.1473 58.0096,-42.4395 64.2346,-45.6409"/>
</g>
<!-- 5 -->
<g id="node5" class="node"><title>5</title>
<ellipse fill="none" stroke="black" cx="55" cy="-234" rx="27" ry="18"/>
<text text-anchor="middle" x="55" y="-230.3" font-family="Times New Roman,serif" font-size="14.00">5</text>
</g>
<!-- 4&#45;&gt;5 -->
<g id="edge4" class="edge"><title>4&#45;&gt;5</title>
<path fill="none" stroke="black" d="M33.6356,-288.411C36.9134,-280.216 40.9442,-270.14 44.6181,-260.955"/>
<polygon fill="black" stroke="black" points="47.9477,-262.055 48.412,-251.47 41.4484,-259.455 47.9477,-262.055"/>
</g>
<!-- 6 -->
<g id="node6" class="node"><title>6</title>
<ellipse fill="none" stroke="black" cx="110" cy="-90" rx="27" ry="18"/>
<text text-anchor="middle" x="110" y="-86.3" font-family="Times New Roman,serif" font-size="14.00">6</text>
</g>
<!-- 5&#45;&gt;6 -->
<g id="edge5" class="edge"><title>5&#45;&gt;6</title>
<path fill="none" stroke="black" d="M67.7479,-217.702C75.5585,-207.587 85.1477,-193.708 91,-180 99.4648,-160.172 104.304,-136.196 106.977,-118.127"/>
<polygon fill="black" stroke="black" points="110.477,-118.366 108.344,-107.988 103.539,-117.431 110.477,-118.366"/>
</g>
<!-- 7 -->
<g id="node7" class="node"><title>7</title>
<ellipse fill="none" stroke="black" cx="55" cy="-162" rx="27" ry="18"/>
<text text-anchor="middle" x="55" y="-158.3" font-family="Times New Roman,serif" font-size="14.00">7</text>
</g>
<!-- 5&#45;&gt;7 -->
<g id="edge6" class="edge"><title>5&#45;&gt;7</title>
<path fill="none" stroke="black" d="M55,-215.697C55,-207.983 55,-198.712 55,-190.112"/>
<polygon fill="black" stroke="black" points="58.5001,-190.104 55,-180.104 51.5001,-190.104 58.5001,-190.104"/>
</g>
<!-- 6&#45;&gt;8 -->
<g id="edge9" class="edge"><title>6&#45;&gt;8</title>
<path fill="none" stroke="black" d="M101.65,-72.7646C97.2885,-64.2831 91.8531,-53.7144 86.9587,-44.1974"/>
<polygon fill="black" stroke="black" points="89.9904,-42.4395 82.3043,-35.1473 83.7654,-45.6409 89.9904,-42.4395"/>
</g>
<!-- 7&#45;&gt;3 -->
<g id="edge7" class="edge"><title>7&#45;&gt;3</title>
<path fill="none" stroke="black" d="M50.8848,-144.055C48.9919,-136.261 46.6996,-126.822 44.5763,-118.079"/>
<polygon fill="black" stroke="black" points="47.9566,-117.167 42.1954,-108.275 41.1543,-118.819 47.9566,-117.167"/>
</g>
</g>
</svg>
