<?xml version="1.0" encoding="UTF-8" standalone="no"?>
<!DOCTYPE svg PUBLIC "-//W3C//DTD SVG 1.1//EN"
 "http://www.w3.org/Graphics/SVG/1.1/DTD/svg11.dtd">
<!-- Generated by graphviz version 2.38.0 (20140413.2041)
 -->
<!-- Title: G_DD Pages: 1 -->
<svg width="144pt" height="476pt"
 viewBox="0.00 0.00 144.00 476.00" xmlns="http://www.w3.org/2000/svg" xmlns:xlink="http://www.w3.org/1999/xlink">
<g id="graph0" class="graph" transform="scale(1 1) rotate(0) translate(4 472)">
<title>G_DD</title>
<polygon fill="white" stroke="none" points="-4,4 -4,-472 140,-472 140,4 -4,4"/>
<!-- A -->
<g id="node1" class="node"><title>A</title>
<ellipse fill="none" stroke="black" cx="109" cy="-450" rx="27" ry="18"/>
<text text-anchor="middle" x="109" y="-446.3" font-family="Times New Roman,serif" font-size="14.00">A</text>
</g>
<!-- B -->
<g id="node2" class="node"><title>B</title>
<ellipse fill="none" stroke="black" cx="109" cy="-378" rx="27" ry="18"/>
<text text-anchor="middle" x="109" y="-374.3" font-family="Times New Roman,serif" font-size="14.00">B</text>
</g>
<!-- A&#45;&gt;B -->
<g id="edge1" class="edge"><title>A&#45;&gt;B</title>
<path fill="none" stroke="black" d="M109,-431.697C109,-423.983 109,-414.712 109,-406.112"/>
<polygon fill="black" stroke="black" points="112.5,-406.104 109,-396.104 105.5,-406.104 112.5,-406.104"/>
</g>
<!-- C -->
<g id="node3" class="node"><title>C</title>
<ellipse fill="none" stroke="black" cx="109" cy="-306" rx="27" ry="18"/>
<text text-anchor="middle" x="109" y="-302.3" font-family="Times New Roman,serif" font-size="14.00">C</text>
</g>
<!-- B&#45;&gt;C -->
<g id="edge2" class="edge"><title>B&#45;&gt;C</title>
<path fill="none" stroke="black" d="M109,-359.697C109,-351.983 109,-342.712 109,-334.112"/>
<polygon fill="black" stroke="black" points="112.5,-334.104 109,-324.104 105.5,-334.104 112.5,-334.104"/>
</g>
<!-- D -->
<g id="node4" class="node"><title>D</title>
<ellipse fill="none" stroke="black" cx="82" cy="-234" rx="27" ry="18"/>
<text text-anchor="middle" x="82" y="-230.3" font-family="Times New Roman,serif" font-size="14.00">D</text>
</g>
<!-- C&#45;&gt;D -->
<g id="edge3" class="edge"><title>C&#45;&gt;D</title>
<path fill="none" stroke="black" d="M102.601,-288.411C99.4864,-280.335 95.6663,-270.431 92.1654,-261.355"/>
<polygon fill="black" stroke="black" points="95.4045,-260.027 88.5403,-251.956 88.8735,-262.546 95.4045,-260.027"/>
</g>
<!-- E -->
<g id="node5" class="node"><title>E</title>
<ellipse fill="none" stroke="black" cx="27" cy="-90" rx="27" ry="18"/>
<text text-anchor="middle" x="27" y="-86.3" font-family="Times New Roman,serif" font-size="14.00">E</text>
</g>
<!-- D&#45;&gt;E -->
<g id="edge4" class="edge"><title>D&#45;&gt;E</title>
<path fill="none" stroke="black" d="M69.2521,-217.702C61.4415,-207.587 51.8523,-193.708 46,-180 37.5352,-160.172 32.6961,-136.196 30.0225,-118.127"/>
<polygon fill="black" stroke="black" points="33.4605,-117.431 28.6561,-107.988 26.5233,-118.366 33.4605,-117.431"/>
</g>
<!-- G -->
<g id="node7" class="node"><title>G</title>
<ellipse fill="none" stroke="black" cx="82" cy="-162" rx="27" ry="18"/>
<text text-anchor="middle" x="82" y="-158.3" font-family="Times New Roman,serif" font-size="14.00">G</text>
</g>
<!-- D&#45;&gt;G -->
<g id="edge6" class="edge"><title>D&#45;&gt;G</title>
<path fill="none" stroke="black" d="M82,-215.697C82,-207.983 82,-198.712 82,-190.112"/>
<polygon fill="black" stroke="black" points="85.5001,-190.104 82,-180.104 78.5001,-190.104 85.5001,-190.104"/>
</g>
<!-- F -->
<g id="node6" class="node"><title>F</title>
<ellipse fill="none" stroke="black" cx="63" cy="-18" rx="27" ry="18"/>
<text text-anchor="middle" x="63" y="-14.3" font-family="Times New Roman,serif" font-size="14.00">F</text>
</g>
<!-- E&#45;&gt;F -->
<g id="edge5" class="edge"><title>E&#45;&gt;F</title>
<path fill="none" stroke="black" d="M35.3496,-72.7646C39.7115,-64.2831 45.1469,-53.7144 50.0413,-44.1974"/>
<polygon fill="black" stroke="black" points="53.2346,-45.6409 54.6957,-35.1473 47.0096,-42.4395 53.2346,-45.6409"/>
</g>
<!-- H -->
<g id="node8" class="node"><title>H</title>
<ellipse fill="none" stroke="black" cx="99" cy="-90" rx="27" ry="18"/>
<text text-anchor="middle" x="99" y="-86.3" font-family="Times New Roman,serif" font-size="14.00">H</text>
</g>
<!-- G&#45;&gt;H -->
<g id="edge7" class="edge"><title>G&#45;&gt;H</title>
<path fill="none" stroke="black" d="M86.1152,-144.055C88.0081,-136.261 90.3004,-126.822 92.4237,-118.079"/>
<polygon fill="black" stroke="black" points="95.8457,-118.819 94.8046,-108.275 89.0434,-117.167 95.8457,-118.819"/>
</g>
<!-- H&#45;&gt;C -->
<g id="edge8" class="edge"><title>H&#45;&gt;C</title>
<path fill="none" stroke="black" d="M106.499,-107.311C110.808,-117.594 115.79,-131.288 118,-144 126.221,-191.291 122.032,-204.17 118,-252 117.283,-260.501 115.931,-269.688 114.488,-277.988"/>
<polygon fill="black" stroke="black" points="111.031,-277.438 112.654,-287.908 117.914,-278.711 111.031,-277.438"/>
</g>
<!-- H&#45;&gt;F -->
<g id="edge9" class="edge"><title>H&#45;&gt;F</title>
<path fill="none" stroke="black" d="M90.6504,-72.7646C86.2885,-64.2831 80.8531,-53.7144 75.9587,-44.1974"/>
<polygon fill="black" stroke="black" points="78.9904,-42.4395 71.3043,-35.1473 72.7654,-45.6409 78.9904,-42.4395"/>
</g>
</g>
</svg>
