<?xml version="1.0" encoding="UTF-8" standalone="no"?>
<!DOCTYPE svg PUBLIC "-//W3C//DTD SVG 1.1//EN"
 "http://www.w3.org/Graphics/SVG/1.1/DTD/svg11.dtd">
<!-- Generated by graphviz version 2.38.0 (20140413.2041)
 -->
<!-- Title: G_DD Pages: 1 -->
<svg width="184pt" height="332pt"
 viewBox="0.00 0.00 183.88 332.00" xmlns="http://www.w3.org/2000/svg" xmlns:xlink="http://www.w3.org/1999/xlink">
<g id="graph0" class="graph" transform="scale(1 1) rotate(0) translate(4 328)">
<title>G_DD</title>
<polygon fill="white" stroke="none" points="-4,4 -4,-328 179.884,-328 179.884,4 -4,4"/>
<!-- A -->
<g id="node1" class="node"><title>A</title>
<ellipse fill="none" stroke="black" cx="85.8843" cy="-306" rx="27" ry="18"/>
<text text-anchor="middle" x="85.8843" y="-302.3" font-family="Times New Roman,serif" font-size="14.00">A</text>
</g>
<!-- B -->
<g id="node2" class="node"><title>B</title>
<ellipse fill="none" stroke="black" cx="85.8843" cy="-234" rx="27" ry="18"/>
<text text-anchor="middle" x="85.8843" y="-230.3" font-family="Times New Roman,serif" font-size="14.00">B</text>
</g>
<!-- A&#45;&gt;B -->
<g id="edge1" class="edge"><title>A&#45;&gt;B</title>
<path fill="none" stroke="black" d="M85.8843,-287.697C85.8843,-279.983 85.8843,-270.712 85.8843,-262.112"/>
<polygon fill="black" stroke="black" points="89.3844,-262.104 85.8843,-252.104 82.3844,-262.104 89.3844,-262.104"/>
</g>
<!-- C -->
<g id="node3" class="node"><title>C</title>
<ellipse fill="none" stroke="black" cx="121.884" cy="-162" rx="27" ry="18"/>
<text text-anchor="middle" x="121.884" y="-158.3" font-family="Times New Roman,serif" font-size="14.00">C</text>
</g>
<!-- B&#45;&gt;C -->
<g id="edge2" class="edge"><title>B&#45;&gt;C</title>
<path fill="none" stroke="black" d="M94.2339,-216.765C98.5958,-208.283 104.031,-197.714 108.926,-188.197"/>
<polygon fill="black" stroke="black" points="112.119,-189.641 113.58,-179.147 105.894,-186.439 112.119,-189.641"/>
</g>
<!-- G -->
<g id="node7" class="node"><title>G</title>
<ellipse fill="none" stroke="black" cx="49.8843" cy="-162" rx="27" ry="18"/>
<text text-anchor="middle" x="49.8843" y="-158.3" font-family="Times New Roman,serif" font-size="14.00">G</text>
</g>
<!-- B&#45;&gt;G -->
<g id="edge8" class="edge"><title>B&#45;&gt;G</title>
<path fill="none" stroke="black" d="M77.5347,-216.765C73.1728,-208.283 67.7374,-197.714 62.843,-188.197"/>
<polygon fill="black" stroke="black" points="65.8747,-186.439 58.1886,-179.147 59.6496,-189.641 65.8747,-186.439"/>
</g>
<!-- D -->
<g id="node4" class="node"><title>D</title>
<ellipse fill="none" stroke="black" cx="121.884" cy="-90" rx="27" ry="18"/>
<text text-anchor="middle" x="121.884" y="-86.3" font-family="Times New Roman,serif" font-size="14.00">D</text>
</g>
<!-- C&#45;&gt;D -->
<g id="edge3" class="edge"><title>C&#45;&gt;D</title>
<path fill="none" stroke="black" d="M121.884,-143.697C121.884,-135.983 121.884,-126.712 121.884,-118.112"/>
<polygon fill="black" stroke="black" points="125.384,-118.104 121.884,-108.104 118.384,-118.104 125.384,-118.104"/>
</g>
<!-- E -->
<g id="node5" class="node"><title>E</title>
<ellipse fill="none" stroke="black" cx="49.8843" cy="-18" rx="27" ry="18"/>
<text text-anchor="middle" x="49.8843" y="-14.3" font-family="Times New Roman,serif" font-size="14.00">E</text>
</g>
<!-- D&#45;&gt;E -->
<g id="edge4" class="edge"><title>D&#45;&gt;E</title>
<path fill="none" stroke="black" d="M107.314,-74.8345C97.1344,-64.9376 83.3604,-51.5462 71.8537,-40.3591"/>
<polygon fill="black" stroke="black" points="74.2898,-37.8461 64.68,-33.3847 69.4102,-42.865 74.2898,-37.8461"/>
</g>
<!-- F -->
<g id="node6" class="node"><title>F</title>
<ellipse fill="none" stroke="black" cx="148.884" cy="-18" rx="27" ry="18"/>
<text text-anchor="middle" x="148.884" y="-14.3" font-family="Times New Roman,serif" font-size="14.00">F</text>
</g>
<!-- D&#45;&gt;F -->
<g id="edge6" class="edge"><title>D&#45;&gt;F</title>
<path fill="none" stroke="black" d="M128.283,-72.411C131.398,-64.3352 135.218,-54.4312 138.719,-45.3547"/>
<polygon fill="black" stroke="black" points="142.011,-46.5458 142.344,-35.9562 135.48,-44.0267 142.011,-46.5458"/>
</g>
<!-- E&#45;&gt;B -->
<g id="edge5" class="edge"><title>E&#45;&gt;B</title>
<path fill="none" stroke="black" d="M36.1339,-33.9312C27.9235,-43.8997 18.2653,-57.7531 13.8843,-72 -0.224082,-117.88 -7.77383,-137.164 13.8843,-180 22.4679,-196.977 39.3357,-209.846 54.588,-218.65"/>
<polygon fill="black" stroke="black" points="53.3237,-221.944 63.7874,-223.606 56.644,-215.782 53.3237,-221.944"/>
</g>
<!-- F&#45;&gt;B -->
<g id="edge7" class="edge"><title>F&#45;&gt;B</title>
<path fill="none" stroke="black" d="M154.996,-35.6385C165.126,-66.1466 182.011,-132.282 157.884,-180 149.301,-196.977 132.433,-209.846 117.181,-218.65"/>
<polygon fill="black" stroke="black" points="115.125,-215.782 107.981,-223.606 118.445,-221.944 115.125,-215.782"/>
</g>
<!-- H -->
<g id="node8" class="node"><title>H</title>
<ellipse fill="none" stroke="black" cx="49.8843" cy="-90" rx="27" ry="18"/>
<text text-anchor="middle" x="49.8843" y="-86.3" font-family="Times New Roman,serif" font-size="14.00">H</text>
</g>
<!-- G&#45;&gt;H -->
<g id="edge9" class="edge"><title>G&#45;&gt;H</title>
<path fill="none" stroke="black" d="M49.8843,-143.697C49.8843,-135.983 49.8843,-126.712 49.8843,-118.112"/>
<polygon fill="black" stroke="black" points="53.3844,-118.104 49.8843,-108.104 46.3844,-118.104 53.3844,-118.104"/>
</g>
</g>
</svg>
