<?xml version="1.0" encoding="UTF-8" standalone="no"?>
<!DOCTYPE svg PUBLIC "-//W3C//DTD SVG 1.1//EN"
 "http://www.w3.org/Graphics/SVG/1.1/DTD/svg11.dtd">
<!-- Generated by graphviz version 2.38.0 (20140413.2041)
 -->
<!-- Title: G_DD Pages: 1 -->
<svg width="258pt" height="404pt"
 viewBox="0.00 0.00 257.86 404.00" xmlns="http://www.w3.org/2000/svg" xmlns:xlink="http://www.w3.org/1999/xlink">
<g id="graph0" class="graph" transform="scale(1 1) rotate(0) translate(4 400)">
<title>G_DD</title>
<polygon fill="white" stroke="none" points="-4,4 -4,-400 253.865,-400 253.865,4 -4,4"/>
<!-- 1 -->
<g id="node1" class="node"><title>1</title>
<ellipse fill="none" stroke="black" cx="149" cy="-378" rx="27" ry="18"/>
<text text-anchor="middle" x="149" y="-374.3" font-family="Times New Roman,serif" font-size="14.00">1</text>
</g>
<!-- 2 -->
<g id="node2" class="node"><title>2</title>
<ellipse fill="none" stroke="black" cx="149" cy="-306" rx="27" ry="18"/>
<text text-anchor="middle" x="149" y="-302.3" font-family="Times New Roman,serif" font-size="14.00">2</text>
</g>
<!-- 1&#45;&gt;2 -->
<g id="edge1" class="edge"><title>1&#45;&gt;2</title>
<path fill="none" stroke="black" d="M149,-359.697C149,-351.983 149,-342.712 149,-334.112"/>
<polygon fill="black" stroke="black" points="152.5,-334.104 149,-324.104 145.5,-334.104 152.5,-334.104"/>
</g>
<!-- 3 -->
<g id="node3" class="node"><title>3</title>
<ellipse fill="none" stroke="black" cx="113" cy="-234" rx="27" ry="18"/>
<text text-anchor="middle" x="113" y="-230.3" font-family="Times New Roman,serif" font-size="14.00">3</text>
</g>
<!-- 2&#45;&gt;3 -->
<g id="edge2" class="edge"><title>2&#45;&gt;3</title>
<path fill="none" stroke="black" d="M140.65,-288.765C136.288,-280.283 130.853,-269.714 125.959,-260.197"/>
<polygon fill="black" stroke="black" points="128.99,-258.439 121.304,-251.147 122.765,-261.641 128.99,-258.439"/>
</g>
<!-- 9 -->
<g id="node9" class="node"><title>9</title>
<ellipse fill="none" stroke="black" cx="185" cy="-234" rx="27" ry="18"/>
<text text-anchor="middle" x="185" y="-230.3" font-family="Times New Roman,serif" font-size="14.00">9</text>
</g>
<!-- 2&#45;&gt;9 -->
<g id="edge10" class="edge"><title>2&#45;&gt;9</title>
<path fill="none" stroke="black" d="M157.35,-288.765C161.712,-280.283 167.147,-269.714 172.041,-260.197"/>
<polygon fill="black" stroke="black" points="175.235,-261.641 176.696,-251.147 169.01,-258.439 175.235,-261.641"/>
</g>
<!-- 4 -->
<g id="node4" class="node"><title>4</title>
<ellipse fill="none" stroke="black" cx="113" cy="-162" rx="27" ry="18"/>
<text text-anchor="middle" x="113" y="-158.3" font-family="Times New Roman,serif" font-size="14.00">4</text>
</g>
<!-- 3&#45;&gt;4 -->
<g id="edge3" class="edge"><title>3&#45;&gt;4</title>
<path fill="none" stroke="black" d="M113,-215.697C113,-207.983 113,-198.712 113,-190.112"/>
<polygon fill="black" stroke="black" points="116.5,-190.104 113,-180.104 109.5,-190.104 116.5,-190.104"/>
</g>
<!-- 5 -->
<g id="node5" class="node"><title>5</title>
<ellipse fill="none" stroke="black" cx="113" cy="-90" rx="27" ry="18"/>
<text text-anchor="middle" x="113" y="-86.3" font-family="Times New Roman,serif" font-size="14.00">5</text>
</g>
<!-- 4&#45;&gt;5 -->
<g id="edge4" class="edge"><title>4&#45;&gt;5</title>
<path fill="none" stroke="black" d="M113,-143.697C113,-135.983 113,-126.712 113,-118.112"/>
<polygon fill="black" stroke="black" points="116.5,-118.104 113,-108.104 109.5,-118.104 116.5,-118.104"/>
</g>
<!-- 6 -->
<g id="node6" class="node"><title>6</title>
<ellipse fill="none" stroke="black" cx="41" cy="-90" rx="27" ry="18"/>
<text text-anchor="middle" x="41" y="-86.3" font-family="Times New Roman,serif" font-size="14.00">6</text>
</g>
<!-- 4&#45;&gt;6 -->
<g id="edge5" class="edge"><title>4&#45;&gt;6</title>
<path fill="none" stroke="black" d="M98.4297,-146.834C88.2501,-136.938 74.4761,-123.546 62.9694,-112.359"/>
<polygon fill="black" stroke="black" points="65.4055,-109.846 55.7957,-105.385 60.5259,-114.865 65.4055,-109.846"/>
</g>
<!-- 8 -->
<g id="node8" class="node"><title>8</title>
<ellipse fill="none" stroke="black" cx="126" cy="-18" rx="27" ry="18"/>
<text text-anchor="middle" x="126" y="-14.3" font-family="Times New Roman,serif" font-size="14.00">8</text>
</g>
<!-- 5&#45;&gt;8 -->
<g id="edge8" class="edge"><title>5&#45;&gt;8</title>
<path fill="none" stroke="black" d="M116.147,-72.055C117.579,-64.3456 119.309,-55.0269 120.918,-46.3642"/>
<polygon fill="black" stroke="black" points="124.407,-46.7463 122.792,-36.2753 117.525,-45.4681 124.407,-46.7463"/>
</g>
<!-- 7 -->
<g id="node7" class="node"><title>7</title>
<ellipse fill="none" stroke="black" cx="27" cy="-18" rx="27" ry="18"/>
<text text-anchor="middle" x="27" y="-14.3" font-family="Times New Roman,serif" font-size="14.00">7</text>
</g>
<!-- 6&#45;&gt;7 -->
<g id="edge6" class="edge"><title>6&#45;&gt;7</title>
<path fill="none" stroke="black" d="M37.611,-72.055C36.0691,-64.3456 34.2054,-55.0269 32.4728,-46.3642"/>
<polygon fill="black" stroke="black" points="35.8483,-45.3947 30.4551,-36.2753 28.9843,-46.7675 35.8483,-45.3947"/>
</g>
<!-- 7&#45;&gt;2 -->
<g id="edge7" class="edge"><title>7&#45;&gt;2</title>
<path fill="none" stroke="black" d="M18.3247,-35.1806C13.3392,-45.415 7.57041,-59.103 5,-72 1.87266,-87.6914 1.32395,-92.428 5,-108 21.4398,-177.64 30.9065,-197.27 77,-252 89.1717,-266.452 106.048,-279.144 120.403,-288.482"/>
<polygon fill="black" stroke="black" points="118.62,-291.495 128.95,-293.849 122.342,-285.567 118.62,-291.495"/>
</g>
<!-- 8&#45;&gt;2 -->
<g id="edge9" class="edge"><title>8&#45;&gt;2</title>
<path fill="none" stroke="black" d="M150.897,-25.1766C173.657,-32.29 205.986,-46.431 221,-72 261.509,-140.986 257.097,-180.607 221,-252 212.416,-268.977 195.549,-281.846 180.296,-290.65"/>
<polygon fill="black" stroke="black" points="178.24,-287.782 171.097,-295.606 181.561,-293.944 178.24,-287.782"/>
</g>
<!-- 10 -->
<g id="node10" class="node"><title>10</title>
<ellipse fill="none" stroke="black" cx="185" cy="-162" rx="27" ry="18"/>
<text text-anchor="middle" x="185" y="-158.3" font-family="Times New Roman,serif" font-size="14.00">10</text>
</g>
<!-- 9&#45;&gt;10 -->
<g id="edge11" class="edge"><title>9&#45;&gt;10</title>
<path fill="none" stroke="black" d="M185,-215.697C185,-207.983 185,-198.712 185,-190.112"/>
<polygon fill="black" stroke="black" points="188.5,-190.104 185,-180.104 181.5,-190.104 188.5,-190.104"/>
</g>
<!-- 11 -->
<g id="node11" class="node"><title>11</title>
<ellipse fill="none" stroke="black" cx="185" cy="-90" rx="27" ry="18"/>
<text text-anchor="middle" x="185" y="-86.3" font-family="Times New Roman,serif" font-size="14.00">11</text>
</g>
<!-- 10&#45;&gt;11 -->
<g id="edge12" class="edge"><title>10&#45;&gt;11</title>
<path fill="none" stroke="black" d="M185,-143.697C185,-135.983 185,-126.712 185,-118.112"/>
<polygon fill="black" stroke="black" points="188.5,-118.104 185,-108.104 181.5,-118.104 188.5,-118.104"/>
</g>
</g>
</svg>
