<?xml version="1.0" encoding="UTF-8" standalone="no"?>
<!DOCTYPE svg PUBLIC "-//W3C//DTD SVG 1.1//EN"
 "http://www.w3.org/Graphics/SVG/1.1/DTD/svg11.dtd">
<!-- Generated by graphviz version 2.38.0 (20140413.2041)
 -->
<!-- Title: G_DD Pages: 1 -->
<svg width="234pt" height="692pt"
 viewBox="0.00 0.00 234.00 692.00" xmlns="http://www.w3.org/2000/svg" xmlns:xlink="http://www.w3.org/1999/xlink">
<g id="graph0" class="graph" transform="scale(1 1) rotate(0) translate(4 688)">
<title>G_DD</title>
<polygon fill="white" stroke="none" points="-4,4 -4,-688 230,-688 230,4 -4,4"/>
<!-- A -->
<g id="node1" class="node"><title>A</title>
<ellipse fill="none" stroke="black" cx="144" cy="-666" rx="27" ry="18"/>
<text text-anchor="middle" x="144" y="-662.3" font-family="Times New Roman,serif" font-size="14.00">A</text>
</g>
<!-- B -->
<g id="node2" class="node"><title>B</title>
<ellipse fill="none" stroke="black" cx="144" cy="-594" rx="27" ry="18"/>
<text text-anchor="middle" x="144" y="-590.3" font-family="Times New Roman,serif" font-size="14.00">B</text>
</g>
<!-- A&#45;&gt;B -->
<g id="edge1" class="edge"><title>A&#45;&gt;B</title>
<path fill="none" stroke="black" d="M144,-647.697C144,-639.983 144,-630.712 144,-622.112"/>
<polygon fill="black" stroke="black" points="147.5,-622.104 144,-612.104 140.5,-622.104 147.5,-622.104"/>
</g>
<!-- C -->
<g id="node3" class="node"><title>C</title>
<ellipse fill="none" stroke="black" cx="144" cy="-522" rx="27" ry="18"/>
<text text-anchor="middle" x="144" y="-518.3" font-family="Times New Roman,serif" font-size="14.00">C</text>
</g>
<!-- B&#45;&gt;C -->
<g id="edge2" class="edge"><title>B&#45;&gt;C</title>
<path fill="none" stroke="black" d="M144,-575.697C144,-567.983 144,-558.712 144,-550.112"/>
<polygon fill="black" stroke="black" points="147.5,-550.104 144,-540.104 140.5,-550.104 147.5,-550.104"/>
</g>
<!-- D -->
<g id="node4" class="node"><title>D</title>
<ellipse fill="none" stroke="black" cx="108" cy="-450" rx="27" ry="18"/>
<text text-anchor="middle" x="108" y="-446.3" font-family="Times New Roman,serif" font-size="14.00">D</text>
</g>
<!-- C&#45;&gt;D -->
<g id="edge3" class="edge"><title>C&#45;&gt;D</title>
<path fill="none" stroke="black" d="M135.65,-504.765C131.288,-496.283 125.853,-485.714 120.959,-476.197"/>
<polygon fill="black" stroke="black" points="123.99,-474.439 116.304,-467.147 117.765,-477.641 123.99,-474.439"/>
</g>
<!-- N -->
<g id="node14" class="node"><title>N</title>
<ellipse fill="none" stroke="black" cx="180" cy="-450" rx="27" ry="18"/>
<text text-anchor="middle" x="180" y="-446.3" font-family="Times New Roman,serif" font-size="14.00">N</text>
</g>
<!-- C&#45;&gt;N -->
<g id="edge16" class="edge"><title>C&#45;&gt;N</title>
<path fill="none" stroke="black" d="M152.35,-504.765C156.712,-496.283 162.147,-485.714 167.041,-476.197"/>
<polygon fill="black" stroke="black" points="170.235,-477.641 171.696,-467.147 164.01,-474.439 170.235,-477.641"/>
</g>
<!-- E -->
<g id="node5" class="node"><title>E</title>
<ellipse fill="none" stroke="black" cx="144" cy="-378" rx="27" ry="18"/>
<text text-anchor="middle" x="144" y="-374.3" font-family="Times New Roman,serif" font-size="14.00">E</text>
</g>
<!-- D&#45;&gt;E -->
<g id="edge4" class="edge"><title>D&#45;&gt;E</title>
<path fill="none" stroke="black" d="M116.35,-432.765C120.712,-424.283 126.147,-413.714 131.041,-404.197"/>
<polygon fill="black" stroke="black" points="134.235,-405.641 135.696,-395.147 128.01,-402.439 134.235,-405.641"/>
</g>
<!-- F -->
<g id="node6" class="node"><title>F</title>
<ellipse fill="none" stroke="black" cx="108" cy="-306" rx="27" ry="18"/>
<text text-anchor="middle" x="108" y="-302.3" font-family="Times New Roman,serif" font-size="14.00">F</text>
</g>
<!-- E&#45;&gt;F -->
<g id="edge5" class="edge"><title>E&#45;&gt;F</title>
<path fill="none" stroke="black" d="M135.65,-360.765C131.288,-352.283 125.853,-341.714 120.959,-332.197"/>
<polygon fill="black" stroke="black" points="123.99,-330.439 116.304,-323.147 117.765,-333.641 123.99,-330.439"/>
</g>
<!-- M -->
<g id="node13" class="node"><title>M</title>
<ellipse fill="none" stroke="black" cx="199" cy="-306" rx="27" ry="18"/>
<text text-anchor="middle" x="199" y="-302.3" font-family="Times New Roman,serif" font-size="14.00">M</text>
</g>
<!-- E&#45;&gt;M -->
<g id="edge14" class="edge"><title>E&#45;&gt;M</title>
<path fill="none" stroke="black" d="M155.934,-361.811C163.214,-352.546 172.663,-340.52 180.854,-330.094"/>
<polygon fill="black" stroke="black" points="183.663,-332.185 187.089,-322.159 178.159,-327.86 183.663,-332.185"/>
</g>
<!-- G -->
<g id="node7" class="node"><title>G</title>
<ellipse fill="none" stroke="black" cx="27" cy="-234" rx="27" ry="18"/>
<text text-anchor="middle" x="27" y="-230.3" font-family="Times New Roman,serif" font-size="14.00">G</text>
</g>
<!-- F&#45;&gt;G -->
<g id="edge6" class="edge"><title>F&#45;&gt;G</title>
<path fill="none" stroke="black" d="M91.997,-291.17C80.2373,-281.008 64.0638,-267.03 50.7925,-255.561"/>
<polygon fill="black" stroke="black" points="52.8244,-252.692 42.9697,-248.801 48.2474,-257.988 52.8244,-252.692"/>
</g>
<!-- J -->
<g id="node10" class="node"><title>J</title>
<ellipse fill="none" stroke="black" cx="108" cy="-234" rx="27" ry="18"/>
<text text-anchor="middle" x="108" y="-230.3" font-family="Times New Roman,serif" font-size="14.00">J</text>
</g>
<!-- F&#45;&gt;J -->
<g id="edge9" class="edge"><title>F&#45;&gt;J</title>
<path fill="none" stroke="black" d="M108,-287.697C108,-279.983 108,-270.712 108,-262.112"/>
<polygon fill="black" stroke="black" points="111.5,-262.104 108,-252.104 104.5,-262.104 111.5,-262.104"/>
</g>
<!-- H -->
<g id="node8" class="node"><title>H</title>
<ellipse fill="none" stroke="black" cx="113" cy="-90" rx="27" ry="18"/>
<text text-anchor="middle" x="113" y="-86.3" font-family="Times New Roman,serif" font-size="14.00">H</text>
</g>
<!-- G&#45;&gt;H -->
<g id="edge7" class="edge"><title>G&#45;&gt;H</title>
<path fill="none" stroke="black" d="M25.974,-215.961C25.6312,-197.023 27.5143,-166.188 41,-144 50.8138,-127.854 67.5751,-115.079 82.4574,-106.12"/>
<polygon fill="black" stroke="black" points="84.4356,-109.021 91.4019,-101.039 80.9781,-102.935 84.4356,-109.021"/>
</g>
<!-- I -->
<g id="node9" class="node"><title>I</title>
<ellipse fill="none" stroke="black" cx="113" cy="-18" rx="27" ry="18"/>
<text text-anchor="middle" x="113" y="-14.3" font-family="Times New Roman,serif" font-size="14.00">I</text>
</g>
<!-- H&#45;&gt;I -->
<g id="edge8" class="edge"><title>H&#45;&gt;I</title>
<path fill="none" stroke="black" d="M113,-71.6966C113,-63.9827 113,-54.7125 113,-46.1124"/>
<polygon fill="black" stroke="black" points="116.5,-46.1043 113,-36.1043 109.5,-46.1044 116.5,-46.1043"/>
</g>
<!-- K -->
<g id="node11" class="node"><title>K</title>
<ellipse fill="none" stroke="black" cx="77" cy="-162" rx="27" ry="18"/>
<text text-anchor="middle" x="77" y="-158.3" font-family="Times New Roman,serif" font-size="14.00">K</text>
</g>
<!-- J&#45;&gt;K -->
<g id="edge10" class="edge"><title>J&#45;&gt;K</title>
<path fill="none" stroke="black" d="M100.653,-216.411C96.9858,-208.129 92.4667,-197.925 88.3646,-188.662"/>
<polygon fill="black" stroke="black" points="91.5434,-187.196 84.2938,-179.47 85.1429,-190.031 91.5434,-187.196"/>
</g>
<!-- L -->
<g id="node12" class="node"><title>L</title>
<ellipse fill="none" stroke="black" cx="149" cy="-162" rx="27" ry="18"/>
<text text-anchor="middle" x="149" y="-158.3" font-family="Times New Roman,serif" font-size="14.00">L</text>
</g>
<!-- J&#45;&gt;L -->
<g id="edge12" class="edge"><title>J&#45;&gt;L</title>
<path fill="none" stroke="black" d="M117.509,-216.765C122.529,-208.195 128.796,-197.494 134.415,-187.9"/>
<polygon fill="black" stroke="black" points="137.508,-189.545 139.542,-179.147 131.468,-186.007 137.508,-189.545"/>
</g>
<!-- K&#45;&gt;H -->
<g id="edge11" class="edge"><title>K&#45;&gt;H</title>
<path fill="none" stroke="black" d="M85.3496,-144.765C89.7115,-136.283 95.1469,-125.714 100.041,-116.197"/>
<polygon fill="black" stroke="black" points="103.235,-117.641 104.696,-107.147 97.0096,-114.439 103.235,-117.641"/>
</g>
<!-- L&#45;&gt;H -->
<g id="edge13" class="edge"><title>L&#45;&gt;H</title>
<path fill="none" stroke="black" d="M140.65,-144.765C136.288,-136.283 130.853,-125.714 125.959,-116.197"/>
<polygon fill="black" stroke="black" points="128.99,-114.439 121.304,-107.147 122.765,-117.641 128.99,-114.439"/>
</g>
<!-- M&#45;&gt;H -->
<g id="edge15" class="edge"><title>M&#45;&gt;H</title>
<path fill="none" stroke="black" d="M201.891,-287.683C206.166,-256.655 211.093,-190.485 185,-144 175.751,-127.523 159.018,-114.732 144.009,-105.847"/>
<polygon fill="black" stroke="black" points="145.41,-102.622 134.969,-100.822 142.009,-108.74 145.41,-102.622"/>
</g>
<!-- N&#45;&gt;E -->
<g id="edge17" class="edge"><title>N&#45;&gt;E</title>
<path fill="none" stroke="black" d="M171.65,-432.765C167.288,-424.283 161.853,-413.714 156.959,-404.197"/>
<polygon fill="black" stroke="black" points="159.99,-402.439 152.304,-395.147 153.765,-405.641 159.99,-402.439"/>
</g>
</g>
</svg>
