<?xml version="1.0" encoding="UTF-8" standalone="no"?>
<!DOCTYPE svg PUBLIC "-//W3C//DTD SVG 1.1//EN"
 "http://www.w3.org/Graphics/SVG/1.1/DTD/svg11.dtd">
<!-- Generated by graphviz version 2.38.0 (20140413.2041)
 -->
<!-- Title: G_DD Pages: 1 -->
<svg width="234pt" height="764pt"
 viewBox="0.00 0.00 234.00 764.00" xmlns="http://www.w3.org/2000/svg" xmlns:xlink="http://www.w3.org/1999/xlink">
<g id="graph0" class="graph" transform="scale(1 1) rotate(0) translate(4 760)">
<title>G_DD</title>
<polygon fill="white" stroke="none" points="-4,4 -4,-760 230,-760 230,4 -4,4"/>
<!-- 1 -->
<g id="node1" class="node"><title>1</title>
<ellipse fill="none" stroke="black" cx="144" cy="-738" rx="27" ry="18"/>
<text text-anchor="middle" x="144" y="-734.3" font-family="Times New Roman,serif" font-size="14.00">1</text>
</g>
<!-- 2 -->
<g id="node2" class="node"><title>2</title>
<ellipse fill="none" stroke="black" cx="144" cy="-666" rx="27" ry="18"/>
<text text-anchor="middle" x="144" y="-662.3" font-family="Times New Roman,serif" font-size="14.00">2</text>
</g>
<!-- 1&#45;&gt;2 -->
<g id="edge1" class="edge"><title>1&#45;&gt;2</title>
<path fill="none" stroke="black" d="M144,-719.697C144,-711.983 144,-702.712 144,-694.112"/>
<polygon fill="black" stroke="black" points="147.5,-694.104 144,-684.104 140.5,-694.104 147.5,-694.104"/>
</g>
<!-- 3 -->
<g id="node3" class="node"><title>3</title>
<ellipse fill="none" stroke="black" cx="144" cy="-594" rx="27" ry="18"/>
<text text-anchor="middle" x="144" y="-590.3" font-family="Times New Roman,serif" font-size="14.00">3</text>
</g>
<!-- 2&#45;&gt;3 -->
<g id="edge2" class="edge"><title>2&#45;&gt;3</title>
<path fill="none" stroke="black" d="M144,-647.697C144,-639.983 144,-630.712 144,-622.112"/>
<polygon fill="black" stroke="black" points="147.5,-622.104 144,-612.104 140.5,-622.104 147.5,-622.104"/>
</g>
<!-- 4 -->
<g id="node4" class="node"><title>4</title>
<ellipse fill="none" stroke="black" cx="144" cy="-522" rx="27" ry="18"/>
<text text-anchor="middle" x="144" y="-518.3" font-family="Times New Roman,serif" font-size="14.00">4</text>
</g>
<!-- 3&#45;&gt;4 -->
<g id="edge3" class="edge"><title>3&#45;&gt;4</title>
<path fill="none" stroke="black" d="M144,-575.697C144,-567.983 144,-558.712 144,-550.112"/>
<polygon fill="black" stroke="black" points="147.5,-550.104 144,-540.104 140.5,-550.104 147.5,-550.104"/>
</g>
<!-- 5 -->
<g id="node5" class="node"><title>5</title>
<ellipse fill="none" stroke="black" cx="108" cy="-450" rx="27" ry="18"/>
<text text-anchor="middle" x="108" y="-446.3" font-family="Times New Roman,serif" font-size="14.00">5</text>
</g>
<!-- 4&#45;&gt;5 -->
<g id="edge4" class="edge"><title>4&#45;&gt;5</title>
<path fill="none" stroke="black" d="M135.65,-504.765C131.288,-496.283 125.853,-485.714 120.959,-476.197"/>
<polygon fill="black" stroke="black" points="123.99,-474.439 116.304,-467.147 117.765,-477.641 123.99,-474.439"/>
</g>
<!-- 6 -->
<g id="node6" class="node"><title>6</title>
<ellipse fill="none" stroke="black" cx="180" cy="-450" rx="27" ry="18"/>
<text text-anchor="middle" x="180" y="-446.3" font-family="Times New Roman,serif" font-size="14.00">6</text>
</g>
<!-- 4&#45;&gt;6 -->
<g id="edge5" class="edge"><title>4&#45;&gt;6</title>
<path fill="none" stroke="black" d="M152.35,-504.765C156.712,-496.283 162.147,-485.714 167.041,-476.197"/>
<polygon fill="black" stroke="black" points="170.235,-477.641 171.696,-467.147 164.01,-474.439 170.235,-477.641"/>
</g>
<!-- 7 -->
<g id="node7" class="node"><title>7</title>
<ellipse fill="none" stroke="black" cx="144" cy="-378" rx="27" ry="18"/>
<text text-anchor="middle" x="144" y="-374.3" font-family="Times New Roman,serif" font-size="14.00">7</text>
</g>
<!-- 5&#45;&gt;7 -->
<g id="edge6" class="edge"><title>5&#45;&gt;7</title>
<path fill="none" stroke="black" d="M116.35,-432.765C120.712,-424.283 126.147,-413.714 131.041,-404.197"/>
<polygon fill="black" stroke="black" points="134.235,-405.641 135.696,-395.147 128.01,-402.439 134.235,-405.641"/>
</g>
<!-- 6&#45;&gt;7 -->
<g id="edge7" class="edge"><title>6&#45;&gt;7</title>
<path fill="none" stroke="black" d="M171.65,-432.765C167.288,-424.283 161.853,-413.714 156.959,-404.197"/>
<polygon fill="black" stroke="black" points="159.99,-402.439 152.304,-395.147 153.765,-405.641 159.99,-402.439"/>
</g>
<!-- 8 -->
<g id="node8" class="node"><title>8</title>
<ellipse fill="none" stroke="black" cx="108" cy="-306" rx="27" ry="18"/>
<text text-anchor="middle" x="108" y="-302.3" font-family="Times New Roman,serif" font-size="14.00">8</text>
</g>
<!-- 7&#45;&gt;8 -->
<g id="edge8" class="edge"><title>7&#45;&gt;8</title>
<path fill="none" stroke="black" d="M135.65,-360.765C131.288,-352.283 125.853,-341.714 120.959,-332.197"/>
<polygon fill="black" stroke="black" points="123.99,-330.439 116.304,-323.147 117.765,-333.641 123.99,-330.439"/>
</g>
<!-- 13 -->
<g id="node13" class="node"><title>13</title>
<ellipse fill="none" stroke="black" cx="199" cy="-306" rx="27" ry="18"/>
<text text-anchor="middle" x="199" y="-302.3" font-family="Times New Roman,serif" font-size="14.00">13</text>
</g>
<!-- 7&#45;&gt;13 -->
<g id="edge13" class="edge"><title>7&#45;&gt;13</title>
<path fill="none" stroke="black" d="M155.934,-361.811C163.214,-352.546 172.663,-340.52 180.854,-330.094"/>
<polygon fill="black" stroke="black" points="183.663,-332.185 187.089,-322.159 178.159,-327.86 183.663,-332.185"/>
</g>
<!-- 9 -->
<g id="node9" class="node"><title>9</title>
<ellipse fill="none" stroke="black" cx="27" cy="-234" rx="27" ry="18"/>
<text text-anchor="middle" x="27" y="-230.3" font-family="Times New Roman,serif" font-size="14.00">9</text>
</g>
<!-- 8&#45;&gt;9 -->
<g id="edge9" class="edge"><title>8&#45;&gt;9</title>
<path fill="none" stroke="black" d="M91.997,-291.17C80.2373,-281.008 64.0638,-267.03 50.7925,-255.561"/>
<polygon fill="black" stroke="black" points="52.8244,-252.692 42.9697,-248.801 48.2474,-257.988 52.8244,-252.692"/>
</g>
<!-- 10 -->
<g id="node10" class="node"><title>10</title>
<ellipse fill="none" stroke="black" cx="108" cy="-234" rx="27" ry="18"/>
<text text-anchor="middle" x="108" y="-230.3" font-family="Times New Roman,serif" font-size="14.00">10</text>
</g>
<!-- 8&#45;&gt;10 -->
<g id="edge10" class="edge"><title>8&#45;&gt;10</title>
<path fill="none" stroke="black" d="M108,-287.697C108,-279.983 108,-270.712 108,-262.112"/>
<polygon fill="black" stroke="black" points="111.5,-262.104 108,-252.104 104.5,-262.104 111.5,-262.104"/>
</g>
<!-- 14 -->
<g id="node14" class="node"><title>14</title>
<ellipse fill="none" stroke="black" cx="113" cy="-90" rx="27" ry="18"/>
<text text-anchor="middle" x="113" y="-86.3" font-family="Times New Roman,serif" font-size="14.00">14</text>
</g>
<!-- 9&#45;&gt;14 -->
<g id="edge14" class="edge"><title>9&#45;&gt;14</title>
<path fill="none" stroke="black" d="M25.974,-215.961C25.6312,-197.023 27.5143,-166.188 41,-144 50.8138,-127.854 67.5751,-115.079 82.4574,-106.12"/>
<polygon fill="black" stroke="black" points="84.4356,-109.021 91.4019,-101.039 80.9781,-102.935 84.4356,-109.021"/>
</g>
<!-- 11 -->
<g id="node11" class="node"><title>11</title>
<ellipse fill="none" stroke="black" cx="77" cy="-162" rx="27" ry="18"/>
<text text-anchor="middle" x="77" y="-158.3" font-family="Times New Roman,serif" font-size="14.00">11</text>
</g>
<!-- 10&#45;&gt;11 -->
<g id="edge11" class="edge"><title>10&#45;&gt;11</title>
<path fill="none" stroke="black" d="M100.653,-216.411C96.9858,-208.129 92.4667,-197.925 88.3646,-188.662"/>
<polygon fill="black" stroke="black" points="91.5434,-187.196 84.2938,-179.47 85.1429,-190.031 91.5434,-187.196"/>
</g>
<!-- 12 -->
<g id="node12" class="node"><title>12</title>
<ellipse fill="none" stroke="black" cx="149" cy="-162" rx="27" ry="18"/>
<text text-anchor="middle" x="149" y="-158.3" font-family="Times New Roman,serif" font-size="14.00">12</text>
</g>
<!-- 10&#45;&gt;12 -->
<g id="edge12" class="edge"><title>10&#45;&gt;12</title>
<path fill="none" stroke="black" d="M117.509,-216.765C122.529,-208.195 128.796,-197.494 134.415,-187.9"/>
<polygon fill="black" stroke="black" points="137.508,-189.545 139.542,-179.147 131.468,-186.007 137.508,-189.545"/>
</g>
<!-- 11&#45;&gt;14 -->
<g id="edge15" class="edge"><title>11&#45;&gt;14</title>
<path fill="none" stroke="black" d="M85.3496,-144.765C89.7115,-136.283 95.1469,-125.714 100.041,-116.197"/>
<polygon fill="black" stroke="black" points="103.235,-117.641 104.696,-107.147 97.0096,-114.439 103.235,-117.641"/>
</g>
<!-- 12&#45;&gt;14 -->
<g id="edge16" class="edge"><title>12&#45;&gt;14</title>
<path fill="none" stroke="black" d="M140.65,-144.765C136.288,-136.283 130.853,-125.714 125.959,-116.197"/>
<polygon fill="black" stroke="black" points="128.99,-114.439 121.304,-107.147 122.765,-117.641 128.99,-114.439"/>
</g>
<!-- 13&#45;&gt;14 -->
<g id="edge17" class="edge"><title>13&#45;&gt;14</title>
<path fill="none" stroke="black" d="M201.891,-287.683C206.166,-256.655 211.093,-190.485 185,-144 175.751,-127.523 159.018,-114.732 144.009,-105.847"/>
<polygon fill="black" stroke="black" points="145.41,-102.622 134.969,-100.822 142.009,-108.74 145.41,-102.622"/>
</g>
<!-- 15 -->
<g id="node15" class="node"><title>15</title>
<ellipse fill="none" stroke="black" cx="113" cy="-18" rx="27" ry="18"/>
<text text-anchor="middle" x="113" y="-14.3" font-family="Times New Roman,serif" font-size="14.00">15</text>
</g>
<!-- 14&#45;&gt;15 -->
<g id="edge18" class="edge"><title>14&#45;&gt;15</title>
<path fill="none" stroke="black" d="M113,-71.6966C113,-63.9827 113,-54.7125 113,-46.1124"/>
<polygon fill="black" stroke="black" points="116.5,-46.1043 113,-36.1043 109.5,-46.1044 116.5,-46.1043"/>
</g>
</g>
</svg>
