<?xml version="1.0" encoding="UTF-8" standalone="no"?>
<!DOCTYPE svg PUBLIC "-//W3C//DTD SVG 1.1//EN"
 "http://www.w3.org/Graphics/SVG/1.1/DTD/svg11.dtd">
<!-- Generated by graphviz version 2.38.0 (20140413.2041)
 -->
<!-- Title: G_DD Pages: 1 -->
<svg width="244pt" height="404pt"
 viewBox="0.00 0.00 244.00 404.00" xmlns="http://www.w3.org/2000/svg" xmlns:xlink="http://www.w3.org/1999/xlink">
<g id="graph0" class="graph" transform="scale(1 1) rotate(0) translate(4 400)">
<title>G_DD</title>
<polygon fill="white" stroke="none" points="-4,4 -4,-400 240,-400 240,4 -4,4"/>
<!-- A -->
<g id="node1" class="node"><title>A</title>
<ellipse fill="none" stroke="black" cx="154" cy="-378" rx="27" ry="18"/>
<text text-anchor="middle" x="154" y="-374.3" font-family="Times New Roman,serif" font-size="14.00">A</text>
</g>
<!-- B -->
<g id="node2" class="node"><title>B</title>
<ellipse fill="none" stroke="black" cx="154" cy="-306" rx="27" ry="18"/>
<text text-anchor="middle" x="154" y="-302.3" font-family="Times New Roman,serif" font-size="14.00">B</text>
</g>
<!-- A&#45;&gt;B -->
<g id="edge1" class="edge"><title>A&#45;&gt;B</title>
<path fill="none" stroke="black" d="M154,-359.697C154,-351.983 154,-342.712 154,-334.112"/>
<polygon fill="black" stroke="black" points="157.5,-334.104 154,-324.104 150.5,-334.104 157.5,-334.104"/>
</g>
<!-- C -->
<g id="node3" class="node"><title>C</title>
<ellipse fill="none" stroke="black" cx="99" cy="-234" rx="27" ry="18"/>
<text text-anchor="middle" x="99" y="-230.3" font-family="Times New Roman,serif" font-size="14.00">C</text>
</g>
<!-- B&#45;&gt;C -->
<g id="edge2" class="edge"><title>B&#45;&gt;C</title>
<path fill="none" stroke="black" d="M142.066,-289.811C134.786,-280.546 125.337,-268.52 117.146,-258.094"/>
<polygon fill="black" stroke="black" points="119.841,-255.86 110.911,-250.159 114.337,-260.185 119.841,-255.86"/>
</g>
<!-- H -->
<g id="node8" class="node"><title>H</title>
<ellipse fill="none" stroke="black" cx="154" cy="-90" rx="27" ry="18"/>
<text text-anchor="middle" x="154" y="-86.3" font-family="Times New Roman,serif" font-size="14.00">H</text>
</g>
<!-- B&#45;&gt;H -->
<g id="edge8" class="edge"><title>B&#45;&gt;H</title>
<path fill="none" stroke="black" d="M154,-287.849C154,-250.832 154,-163.181 154,-118.386"/>
<polygon fill="black" stroke="black" points="157.5,-118.232 154,-108.232 150.5,-118.232 157.5,-118.232"/>
</g>
<!-- I -->
<g id="node9" class="node"><title>I</title>
<ellipse fill="none" stroke="black" cx="209" cy="-234" rx="27" ry="18"/>
<text text-anchor="middle" x="209" y="-230.3" font-family="Times New Roman,serif" font-size="14.00">I</text>
</g>
<!-- B&#45;&gt;I -->
<g id="edge10" class="edge"><title>B&#45;&gt;I</title>
<path fill="none" stroke="black" d="M165.934,-289.811C173.214,-280.546 182.663,-268.52 190.854,-258.094"/>
<polygon fill="black" stroke="black" points="193.663,-260.185 197.089,-250.159 188.159,-255.86 193.663,-260.185"/>
</g>
<!-- D -->
<g id="node4" class="node"><title>D</title>
<ellipse fill="none" stroke="black" cx="27" cy="-162" rx="27" ry="18"/>
<text text-anchor="middle" x="27" y="-158.3" font-family="Times New Roman,serif" font-size="14.00">D</text>
</g>
<!-- C&#45;&gt;D -->
<g id="edge3" class="edge"><title>C&#45;&gt;D</title>
<path fill="none" stroke="black" d="M84.4297,-218.834C74.2501,-208.938 60.4761,-195.546 48.9694,-184.359"/>
<polygon fill="black" stroke="black" points="51.4055,-181.846 41.7957,-177.385 46.5259,-186.865 51.4055,-181.846"/>
</g>
<!-- G -->
<g id="node7" class="node"><title>G</title>
<ellipse fill="none" stroke="black" cx="99" cy="-162" rx="27" ry="18"/>
<text text-anchor="middle" x="99" y="-158.3" font-family="Times New Roman,serif" font-size="14.00">G</text>
</g>
<!-- C&#45;&gt;G -->
<g id="edge6" class="edge"><title>C&#45;&gt;G</title>
<path fill="none" stroke="black" d="M99,-215.697C99,-207.983 99,-198.712 99,-190.112"/>
<polygon fill="black" stroke="black" points="102.5,-190.104 99,-180.104 95.5001,-190.104 102.5,-190.104"/>
</g>
<!-- E -->
<g id="node5" class="node"><title>E</title>
<ellipse fill="none" stroke="black" cx="82" cy="-90" rx="27" ry="18"/>
<text text-anchor="middle" x="82" y="-86.3" font-family="Times New Roman,serif" font-size="14.00">E</text>
</g>
<!-- D&#45;&gt;E -->
<g id="edge4" class="edge"><title>D&#45;&gt;E</title>
<path fill="none" stroke="black" d="M38.9342,-145.811C46.2136,-136.546 55.6626,-124.52 63.8544,-114.094"/>
<polygon fill="black" stroke="black" points="66.663,-116.185 70.0891,-106.159 61.1587,-111.86 66.663,-116.185"/>
</g>
<!-- F -->
<g id="node6" class="node"><title>F</title>
<ellipse fill="none" stroke="black" cx="154" cy="-18" rx="27" ry="18"/>
<text text-anchor="middle" x="154" y="-14.3" font-family="Times New Roman,serif" font-size="14.00">F</text>
</g>
<!-- E&#45;&gt;F -->
<g id="edge5" class="edge"><title>E&#45;&gt;F</title>
<path fill="none" stroke="black" d="M96.5703,-74.8345C106.75,-64.9376 120.524,-51.5462 132.031,-40.3591"/>
<polygon fill="black" stroke="black" points="134.474,-42.865 139.204,-33.3847 129.595,-37.8461 134.474,-42.865"/>
</g>
<!-- G&#45;&gt;E -->
<g id="edge7" class="edge"><title>G&#45;&gt;E</title>
<path fill="none" stroke="black" d="M94.8848,-144.055C92.9919,-136.261 90.6996,-126.822 88.5763,-118.079"/>
<polygon fill="black" stroke="black" points="91.9566,-117.167 86.1954,-108.275 85.1543,-118.819 91.9566,-117.167"/>
</g>
<!-- H&#45;&gt;F -->
<g id="edge9" class="edge"><title>H&#45;&gt;F</title>
<path fill="none" stroke="black" d="M154,-71.6966C154,-63.9827 154,-54.7125 154,-46.1124"/>
<polygon fill="black" stroke="black" points="157.5,-46.1043 154,-36.1043 150.5,-46.1044 157.5,-46.1043"/>
</g>
<!-- I&#45;&gt;F -->
<g id="edge11" class="edge"><title>I&#45;&gt;F</title>
<path fill="none" stroke="black" d="M209.598,-215.93C210.088,-185.842 208.593,-121.84 190,-72 186.093,-61.5262 179.705,-51.1077 173.387,-42.3153"/>
<polygon fill="black" stroke="black" points="176.012,-39.9842 167.186,-34.1232 170.43,-44.2089 176.012,-39.9842"/>
</g>
</g>
</svg>
